<svg xmlns="http://www.w3.org/2000/svg" viewBox="0 0 800 400" width="100%" height="100%">
  <rect width="100%" height="100%" fill="#111111" />
  
  <path d="M0,0 L800,0 L800,25 L500,10 L200,30 L0,15 Z" fill="#FF00FF"/>
  <path d="M0,380 L300,390 L600,370 L800,385 L800,400 L0,400 Z" fill="#00FF00"/>

  <g transform="translate(400, 90) rotate(-2)">
    <text text-anchor="middle" font-family="Arial Black, Impact, sans-serif" font-size="50" font-weight="900" fill="#00FFFF" stroke="#000" stroke-width="4">
      HI, I'M <tspan fill="#FF3300">VINICIUS</tspan>
    </text>
  </g>
  <g transform="translate(400, 135) rotate(1)">
    <text text-anchor="middle" font-family="Courier New, monospace" font-size="20" font-weight="bold" fill="#FFFFFF">
      &gt; The Full-stack Architect &amp; Founder (Chaos Edition)
    </text>
  </g>

  <g transform="translate(80, 170)">
    <path d="M20,20 Q60,-20 120,10 T160,80 Q130,140 80,120 T10,80 Z" fill="#FF3300" stroke="#000" stroke-width="6"/>
    <circle cx="55" cy="45" r="18" fill="#FFF" stroke="#000" stroke-width="4"/>
    <circle cx="55" cy="45" r="5" fill="#000"/>
    <circle cx="105" cy="35" r="12" fill="#FFF" stroke="#000" stroke-width="4"/>
    <circle cx="103" cy="37" r="3" fill="#000"/>
    <text x="85" y="95" text-anchor="middle" font-family="Arial Black, sans-serif" font-size="16" fill="#FFF" stroke="#000" stroke-width="1.5">RUST CORE</text>
    <text x="85" y="115" text-anchor="middle" font-family="Arial, sans-serif" font-size="11" font-weight="bold" fill="#000">Security &amp; DBs</text>
  </g>

  <g transform="translate(290, 150)">
    <path d="M30,30 Q110,-20 180,20 T210,100 Q180,180 100,160 T10,100 Z" fill="#FFFF00" stroke="#000" stroke-width="8"/>
    <path d="M50,85 Q110,150 170,80" fill="none" stroke="#000" stroke-width="8" stroke-linecap="round"/>
    <line x1="70" y1="90" x2="65" y2="115" stroke="#000" stroke-width="4"/>
    <line x1="110" y1="102" x2="110" y2="125" stroke="#000" stroke-width="4"/>
    <line x1="150" y1="88" x2="155" y2="110" stroke="#000" stroke-width="4"/>
    <text x="110" y="55" text-anchor="middle" font-family="Arial Black, sans-serif" font-size="22" fill="#FF00FF" stroke="#000" stroke-width="2">ZANVEXIS AI</text>
    <text x="110" y="145" text-anchor="middle" font-family="Arial Black, sans-serif" font-size="13" fill="#000">THE MASTERPIECE</text>
  </g>

  <g transform="translate(540, 180)">
    <path d="M20,10 Q80,-20 140,20 T160,80 Q140,140 70,120 T10,70 Z" fill="#00CCFF" stroke="#000" stroke-width="6"/>
    <path d="M40,40 Q80,20 120,40 Q100,90 80,80 Q60,90 40,40 Z" fill="#FFF" stroke="#000" stroke-width="4"/>
    <circle cx="80" cy="55" r="7" fill="#000"/>
    <text x="80" y="100" text-anchor="middle" font-family="Arial Black, sans-serif" font-size="16" fill="#000">WEB3 &amp; UI</text>
    <text x="80" y="120" text-anchor="middle" font-family="Arial, sans-serif" font-size="11" font-weight="bold" fill="#000">DeFi &amp; Chains</text>
  </g>

  <g transform="translate(400, 360) rotate(1)">
    <text text-anchor="middle" font-family="Arial Black, sans-serif" font-size="14" fill="#FF8800" letter-spacing="2">BUILDING THE FUTURE OS (OR DESTROYING IT)</text>
  </g>
</svg>
